<!DOCTYPE svg PUBLIC "-//W3C//DTD SVG 1.1//EN" "http://www.w3.org/Graphics/SVG/1.1/DTD/svg11.dtd">
<!-- Uploaded to: SVG Repo, www.svgrepo.com, Transformed by: SVG Repo Mixer Tools -->
<svg fill="#fff" version="1.1" id="Capa_1" xmlns="http://www.w3.org/2000/svg" xmlns:xlink="http://www.w3.org/1999/xlink" width="800px" height="800px" viewBox="0 0 612 612" xml:space="preserve" stroke="#fff">
<g id="SVGRepo_bgCarrier" stroke-width="0"/>
<g id="SVGRepo_tracerCarrier" stroke-linecap="round" stroke-linejoin="round"/>
<g id="SVGRepo_iconCarrier"> <g> <path d="M610.937,455.265c-1.373,3.207-3.986,5.755-7.232,7.061l-68.9,27.634c-1.583,0.635-3.26,0.937-4.908,0.937 c-3.484,0-6.901-1.373-9.436-3.972c-3.735-3.827-4.79-9.503-2.705-14.425l7.574-17.686l-38.284-16.259v21.022 c0,32.795-26.592,59.387-59.387,59.387s-59.386-26.592-59.386-59.387v-71.435l-28.6-12.154l-0.012,83.604 c-0.013,32.78-26.592,59.374-59.387,59.374c-0.012,0,0,0-0.012,0c-32.781-0.013-59.386-26.592-59.374-59.4l0.012-134.002 l-28.572-12.142v146.155c0,32.795-26.591,59.387-59.386,59.387s-59.387-26.592-59.387-59.387V262.982l-53.448-22.699 c-16.773-7.125-24.599-26.487-17.473-43.26c7.125-16.773,26.526-24.586,43.246-17.473l27.674,11.746v-38.876 c0-32.795,26.592-59.387,59.387-59.387s59.386,26.591,59.386,59.387v89.317l28.584,12.128v-19.664 c0.012-32.795,26.591-59.386,59.387-59.386c0.012,0,0,0,0.012,0c32.78,0,59.387,26.591,59.374,59.386l-0.013,70.088l28.6,12.142 v-9.211c0-32.795,26.591-59.386,59.386-59.386s59.387,26.591,59.387,59.386v59.649l64.217,27.265l7.761-18.146 c2.099-4.922,6.756-8.037,12.299-8.011c5.333,0.053,10.108,3.325,12.089,8.288l27.634,68.889 C612.362,448.402,612.31,452.031,610.937,455.265z"/> </g> </g>
</svg>